<?xml version="1.0" encoding="UTF-8"?>
<!DOCTYPE svg PUBLIC "-//W3C//DTD SVG 1.1//EN" "http://www.w3.org/Graphics/SVG/1.1/DTD/svg11.dtd">
<!-- Creator: CorelDRAW X7 -->
<svg xmlns="http://www.w3.org/2000/svg" xml:space="preserve" width="0.199992in" height="0.199992in" version="1.1" style="shape-rendering:geometricPrecision; text-rendering:geometricPrecision; image-rendering:optimizeQuality; fill-rule:evenodd; clip-rule:evenodd"
viewBox="0 0 200 200"
 xmlns:xlink="http://www.w3.org/1999/xlink">
 <defs>
  <style type="text/css">
   <![CDATA[
    .fil1 {fill:#B3B3B3;fill-rule:nonzero}
    .fil0 {fill:#B3B3B3;fill-rule:nonzero}
   ]]>
  </style>
 </defs>
 <g id="Layer_x0020_1">
  <metadata id="CorelCorpID_0Corel-Layer"/>
  <g id="_2118408200288">
   <polygon class="fil0" points="81,57 46,57 46,117 81,117 81,126 42,126 37,126 37,122 37,52 37,48 42,48 81,48 "/>
   <polygon class="fil0" points="57,144 81,144 81,153 57,153 "/>
   <path class="fil0" d="M104 55l0 90 50 0 0 -89 -50 -1zm-8 94l0 -98 0 -4 4 0 58 1 5 0 0 4 0 97 0 4 -5 0 -58 0 -4 0 0 -4z"/>
   <polygon class="fil0" points="122,75 136,75 136,83 122,83 "/>
   <path class="fil1" d="M129 98c5,0 9,2 11,5l0 0c3,3 5,7 5,11 0,4 -2,8 -5,11l0 0c-2,3 -6,5 -11,5 -4,0 -8,-2 -11,-5 -3,-3 -5,-7 -5,-11 0,-4 2,-8 5,-11l0 0c3,-3 7,-5 11,-5zm5 11c-1,-1 -3,-2 -5,-2 -2,0 -4,1 -5,2l0 0c-1,1 -2,3 -2,5 0,2 1,4 2,5 1,2 3,2 5,2 2,0 4,0 5,-2l0 0c2,-1 2,-3 2,-5 0,-2 0,-4 -2,-5l0 0z"/>
  </g>
 </g>
</svg>
