<?xml version="1.0" encoding="utf-8"?>
<!-- Generator: Adobe Illustrator 16.0.0, SVG Export Plug-In . SVG Version: 6.00 Build 0)  -->
<!DOCTYPE svg PUBLIC "-//W3C//DTD SVG 1.1//EN" "http://www.w3.org/Graphics/SVG/1.1/DTD/svg11.dtd">
<svg version="1.1" id="Layer_1" xmlns="http://www.w3.org/2000/svg" xmlns:xlink="http://www.w3.org/1999/xlink" x="0px" y="0px"
	 width="566.93px" height="170.04px" viewBox="0 0 566.93 170.04" enable-background="new 0 0 566.93 170.04" xml:space="preserve">
<g>
	<path fill="#FFFFFF" d="M137.532,75.517c-26.994-16.031-71.52-17.505-97.289-9.684c-4.139,1.255-8.515-1.081-9.769-5.219
		c-1.254-4.14,1.08-8.513,5.221-9.771c29.581-8.98,78.755-7.245,109.831,11.202c3.723,2.209,4.944,7.016,2.737,10.732
		C146.056,76.5,141.245,77.727,137.532,75.517L137.532,75.517z M136.648,99.261c-1.893,3.073-5.911,4.036-8.98,2.15
		c-22.505-13.834-56.822-17.841-83.447-9.759c-3.453,1.043-7.1-0.903-8.148-4.35c-1.041-3.453,0.907-7.093,4.354-8.144
		C70.841,69.93,108.652,74.4,134.5,90.285C137.569,92.175,138.535,96.195,136.648,99.261L136.648,99.261z M126.401,122.064
		c-1.504,2.467-4.718,3.241-7.176,1.736c-19.666-12.019-44.417-14.733-73.567-8.074c-2.809,0.644-5.609-1.117-6.25-3.926
		c-0.644-2.809,1.11-5.607,3.926-6.248c31.899-7.293,59.263-4.154,81.336,9.334C127.131,116.39,127.906,119.604,126.401,122.064
		L126.401,122.064z M87.996,1.277c-46.25,0-83.743,37.493-83.743,83.742c0,46.254,37.494,83.745,83.743,83.745
		c46.251,0,83.744-37.491,83.744-83.745C171.739,38.77,134.247,1.277,87.996,1.277L87.996,1.277z"/>
	<path fill="#FFFFFF" d="M232.089,78.586c-14.459-3.449-17.034-5.869-17.034-10.953c0-4.805,4.524-8.037,11.25-8.037
		c6.521,0,12.984,2.455,19.763,7.509c0.205,0.152,0.463,0.214,0.716,0.174c0.253-0.038,0.476-0.177,0.625-0.386l7.06-9.952
		c0.29-0.41,0.211-0.975-0.18-1.288c-8.067-6.474-17.151-9.62-27.77-9.62c-15.611,0-26.517,9.369-26.517,22.774
		c0,14.375,9.407,19.465,25.663,23.394c13.836,3.187,16.171,5.856,16.171,10.63c0,5.289-4.722,8.577-12.321,8.577
		c-8.438,0-15.324-2.843-23.024-9.512c-0.191-0.164-0.453-0.24-0.695-0.227c-0.254,0.021-0.487,0.14-0.649,0.334l-7.916,9.421
		c-0.332,0.392-0.29,0.976,0.094,1.313c8.961,7.999,19.979,12.225,31.872,12.225c16.822,0,27.693-9.192,27.693-23.42
		C256.889,89.521,249.705,82.87,232.089,78.586L232.089,78.586z"/>
	<path fill="#FFFFFF" d="M307.162,94.701c0,10.153-6.254,17.238-15.209,17.238c-8.854,0-15.531-7.407-15.531-17.238
		c0-9.83,6.678-17.238,15.531-17.238C300.764,77.463,307.162,84.711,307.162,94.701L307.162,94.701z M294.95,64.326
		c-7.292,0-13.273,2.872-18.205,8.757v-6.624c0-0.522-0.424-0.949-0.947-0.949h-12.946c-0.522,0-0.945,0.426-0.945,0.949v73.603
		c0,0.522,0.423,0.949,0.945,0.949h12.946c0.523,0,0.947-0.427,0.947-0.949v-23.232c4.933,5.536,10.915,8.24,18.205,8.24
		c13.549,0,27.265-10.43,27.265-30.368C322.215,74.759,308.499,64.326,294.95,64.326L294.95,64.326z"/>
	<path fill="#FFFFFF" d="M357.373,112.045c-9.281,0-16.278-7.457-16.278-17.344c0-9.929,6.755-17.134,16.064-17.134
		c9.341,0,16.385,7.457,16.385,17.351C373.544,104.846,366.743,112.045,357.373,112.045L357.373,112.045z M357.373,64.326
		c-17.449,0-31.119,13.436-31.119,30.592c0,16.97,13.576,30.265,30.905,30.265c17.511,0,31.223-13.392,31.223-30.481
		C388.382,77.668,374.764,64.326,357.373,64.326L357.373,64.326z"/>
	<path fill="#FFFFFF" d="M425.644,65.51h-14.247V50.944c0-0.522-0.422-0.948-0.944-0.948h-12.945c-0.524,0-0.95,0.426-0.95,0.948
		V65.51h-6.225c-0.522,0-0.943,0.426-0.943,0.949v11.127c0,0.522,0.421,0.948,0.943,0.948h6.225v28.792
		c0,11.635,5.791,17.534,17.212,17.534c4.645,0,8.497-0.959,12.128-3.019c0.295-0.164,0.479-0.482,0.479-0.82v-10.597
		c0-0.326-0.171-0.635-0.45-0.807c-0.282-0.177-0.633-0.186-0.922-0.043c-2.494,1.255-4.905,1.834-7.6,1.834
		c-4.153,0-6.008-1.885-6.008-6.112V78.534h14.247c0.523,0,0.944-0.426,0.944-0.948V66.459
		C426.588,65.937,426.167,65.51,425.644,65.51L425.644,65.51z"/>
	<path fill="#FFFFFF" d="M475.281,65.567v-1.789c0-5.263,2.018-7.61,6.544-7.61c2.698,0,4.866,0.537,7.295,1.347
		c0.299,0.094,0.61,0.047,0.854-0.132c0.25-0.179,0.392-0.466,0.392-0.77v-10.91c0-0.417-0.269-0.787-0.669-0.909
		c-2.565-0.763-5.848-1.546-10.762-1.546c-11.959,0-18.278,6.734-18.278,19.467v2.74h-6.221c-0.521,0-0.95,0.425-0.95,0.948v11.184
		c0,0.522,0.429,0.948,0.95,0.948h6.221v44.41c0,0.522,0.422,0.948,0.943,0.948h12.946c0.522,0,0.949-0.426,0.949-0.948v-44.41
		h12.088l18.517,44.398c-2.102,4.665-4.169,5.593-6.991,5.593c-2.28,0-4.683-0.681-7.139-2.025c-0.23-0.127-0.504-0.147-0.754-0.07
		c-0.247,0.088-0.455,0.271-0.56,0.512l-4.389,9.627c-0.209,0.455-0.03,0.989,0.407,1.225c4.581,2.481,8.717,3.54,13.827,3.54
		c9.56,0,14.844-4.454,19.503-16.434l22.461-58.04c0.112-0.292,0.079-0.622-0.1-0.881c-0.179-0.257-0.466-0.412-0.779-0.412h-13.478
		c-0.403,0-0.766,0.256-0.897,0.636l-13.807,39.438l-15.123-39.464c-0.139-0.368-0.491-0.61-0.885-0.61H475.281L475.281,65.567z"/>
	<path fill="#FFFFFF" d="M446.505,65.51h-12.947c-0.522,0-0.948,0.426-0.948,0.949v56.485c0,0.522,0.426,0.948,0.948,0.948h12.947
		c0.521,0,0.948-0.426,0.948-0.948V66.459C447.453,65.937,447.026,65.51,446.505,65.51L446.505,65.51z"/>
	<path fill="#FFFFFF" d="M440.097,39.792c-5.128,0-9.291,4.152-9.291,9.281c0,5.132,4.163,9.289,9.291,9.289
		c5.127,0,9.285-4.157,9.285-9.289C449.382,43.944,445.224,39.792,440.097,39.792L440.097,39.792z"/>
	<path fill="#FFFFFF" d="M554.049,71.129h-2.372v3.025h2.372c1.184,0,1.891-0.579,1.891-1.514
		C555.939,71.656,555.232,71.129,554.049,71.129L554.049,71.129z M555.587,75.444l2.577,3.608h-2.173l-2.32-3.31h-1.994v3.31h-1.819
		v-9.563h4.266c2.221,0,3.683,1.137,3.683,3.05C557.806,74.106,556.9,75.064,555.587,75.444L555.587,75.444z M553.566,66.306
		c-4.666,0-8.198,3.71-8.198,8.253c0,4.541,3.507,8.201,8.15,8.201c4.666,0,8.201-3.707,8.201-8.252
		C561.72,69.966,558.211,66.306,553.566,66.306L553.566,66.306z M553.519,83.671c-5.124,0-9.11-4.115-9.11-9.112
		s4.039-9.159,9.158-9.159c5.123,0,9.111,4.115,9.111,9.107C562.678,79.504,558.642,83.671,553.519,83.671L553.519,83.671z"/>
</g>
</svg>
