<svg width="70" height="64" viewBox="0 0 70 64" fill="none" xmlns="http://www.w3.org/2000/svg">
<rect width="70" height="63.7313" fill="#121212"/>
<path d="M47.75 19.25V36.9583C47.75 38.2734 47.2276 39.5345 46.2977 40.4644C45.3678 41.3943 44.1067 41.9167 42.7916 41.9167C41.4766 41.9167 40.2154 41.3943 39.2856 40.4644C38.3557 39.5345 37.8333 38.2734 37.8333 36.9583C37.8333 35.6433 38.3557 34.3821 39.2856 33.4523C40.2154 32.5224 41.4766 32 42.7916 32C43.5566 32 44.2791 32.17 44.9166 32.4817V24.1658L30.75 27.1833V39.7917C30.75 41.1067 30.2276 42.3679 29.2977 43.2977C28.3678 44.2276 27.1067 44.75 25.7916 44.75C24.4766 44.75 23.2154 44.2276 22.2856 43.2977C21.3557 42.3679 20.8333 41.1067 20.8333 39.7917C20.8333 38.4766 21.3557 37.2155 22.2856 36.2856C23.2154 35.3557 24.4766 34.8333 25.7916 34.8333C26.5566 34.8333 27.2791 35.0033 27.9166 35.315V23.5L47.75 19.25Z" fill="#B3B3B3"/>
</svg>
