<?xml version="1.0" encoding="UTF-8"?>
<!DOCTYPE svg PUBLIC "-//W3C//DTD SVG 1.1//EN" "http://www.w3.org/Graphics/SVG/1.1/DTD/svg11.dtd">
<!-- Creator: CorelDRAW X7 -->
<svg xmlns="http://www.w3.org/2000/svg" xml:space="preserve" width="0.199992in" height="0.199992in" version="1.1" style="shape-rendering:geometricPrecision; text-rendering:geometricPrecision; image-rendering:optimizeQuality; fill-rule:evenodd; clip-rule:evenodd"
viewBox="0 0 200 200"
 xmlns:xlink="http://www.w3.org/1999/xlink">
 <defs>
  <style type="text/css">
   <![CDATA[
    .fil0 {fill:#B3B3B3}
   ]]>
  </style>
 </defs>
 <g id="Layer_x0020_1">
  <metadata id="CorelCorpID_0Corel-Layer"/>
  <g id="_2118474911504">
   <path class="fil0" d="M123 59l-52 0c0,0 -37,9 -35,35 0,0 -3,15 5,26l7 -4c0,0 -13,-12 -3,-31 10,-19 25,-20 25,-20l53 0 0 11 27 -15c0,0 -27,-15 -27,-16l0 14z"/>
   <path class="fil0" d="M77 141l52 0c0,0 37,-9 35,-35 0,0 3,-15 -5,-26l-7 4c0,0 13,12 3,31 -10,19 -25,20 -25,20l-53 0 0 -11 -27 15c0,0 27,15 27,16l0 -14z"/>
  </g>
 </g>
</svg>
