<?xml version="1.0" encoding="UTF-8"?>
<!DOCTYPE svg PUBLIC "-//W3C//DTD SVG 1.1//EN" "http://www.w3.org/Graphics/SVG/1.1/DTD/svg11.dtd">
<!-- Creator: CorelDRAW X7 -->
<svg xmlns="http://www.w3.org/2000/svg" xml:space="preserve" width="0.199992in" height="0.199992in" version="1.1" style="shape-rendering:geometricPrecision; text-rendering:geometricPrecision; image-rendering:optimizeQuality; fill-rule:evenodd; clip-rule:evenodd"
viewBox="0 0 200 200"
 xmlns:xlink="http://www.w3.org/1999/xlink">
 <defs>
  <style type="text/css">
   <![CDATA[
    .fil0 {fill:#B3B3B3}
   ]]>
  </style>
 </defs>
 <g id="Layer_x0020_1">
  <metadata id="CorelCorpID_0Corel-Layer"/>
  <g id="_2118410545184">
   <path class="fil0" d="M146 31l0 19c0,0 -17,-8 -44,21 -27,30 -54,71 -72,73l-13 1 0 9c0,0 20,1 34,-13 15,-15 66,-83 79,-83 14,0 16,0 16,0 0,0 1,17 0,17 -1,0 37,-21 37,-21l-37 -23z"/>
   <path class="fil0" d="M18 46l0 9c0,0 19,-2 33,16l12 14 7 -7c0,0 -26,-35 -52,-32z"/>
   <path class="fil0" d="M96 123c0,0 12,15 25,22 12,6 23,4 23,4l0 20c0,0 40,-21 39,-23 -1,-1 -39,-22 -39,-22l0 19c0,0 -13,2 -24,-9 -12,-10 -19,-18 -19,-18 0,0 -6,7 -5,7z"/>
  </g>
 </g>
</svg>
