<svg width="16" height="16" viewBox="0 0 16 16" fill="none" xmlns="http://www.w3.org/2000/svg">
<path d="M3.9375 6H1.75C1.6837 6 1.62011 6.02634 1.57322 6.07323C1.52634 6.12011 1.5 6.1837 1.5 6.25V9.75C1.5 9.81631 1.52634 9.8799 1.57322 9.92678C1.62011 9.97366 1.6837 10 1.75 10H3.92656C4.04181 9.99909 4.1538 10.0382 4.24344 10.1106L7.10187 12.4509C7.13908 12.4783 7.18315 12.4948 7.22918 12.4987C7.27521 12.5025 7.32141 12.4935 7.36264 12.4727C7.40388 12.4519 7.43854 12.4201 7.46279 12.3808C7.48704 12.3415 7.49992 12.2962 7.5 12.25V3.75C7.49992 3.70381 7.48704 3.65855 7.46279 3.61923C7.43854 3.57992 7.40388 3.54809 7.36264 3.52727C7.32141 3.50646 7.27521 3.49748 7.22918 3.50133C7.18315 3.50517 7.13908 3.5217 7.10187 3.54907L4.24344 5.88938C4.15793 5.96159 4.04942 6.00083 3.9375 6Z" stroke="#B3B3B3" stroke-linecap="round" stroke-linejoin="round"/>
<path d="M10 10C10.3044 9.39438 10.5 8.72375 10.5 8C10.5 7.26625 10.3125 6.61187 10 6" stroke="#B3B3B3" stroke-linecap="round" stroke-linejoin="round"/>
<path d="M11.5 11.5C12.1087 10.44 12.5 9.49812 12.5 8C12.5 6.50188 12.125 5.57062 11.5 4.5" stroke="#B3B3B3" stroke-linecap="round" stroke-linejoin="round"/>
</svg>
